<svg width="72" height="71" viewBox="0 0 72 71" fill="none" xmlns="http://www.w3.org/2000/svg">
<path d="M38.8699 46.4443C40.5296 45.4334 42.0513 44.2123 43.4047 42.8049L46.1141 44.2932C46.371 44.4342 46.662 44.5083 46.9542 44.5083C47.5927 44.5083 48.1795 44.1614 48.4869 43.6025L52.5436 36.2156C52.7684 35.8062 52.8194 35.3342 52.6888 34.8858C52.5582 34.4381 52.2606 34.0682 51.8517 33.8428L49.1424 32.3551C49.6028 30.4586 49.8173 28.5189 49.7796 26.5749L52.7446 25.7117C53.6692 25.4426 54.2032 24.4706 53.9335 23.546L51.5788 15.4545C51.3176 14.5548 50.3171 14.002 49.4131 14.2656L46.4481 15.1289C45.436 13.468 44.2151 11.9469 42.8088 10.5935L44.2971 7.88534C44.7606 7.04155 44.4502 5.97671 43.6064 5.51313L36.2195 1.45763C35.9625 1.31669 35.6715 1.24137 35.3793 1.24137C34.7409 1.24137 34.154 1.58885 33.8467 2.14712L32.3589 4.85648C30.4648 4.39663 28.5148 4.18522 26.5788 4.21984L25.7156 1.25481C25.4531 0.355128 24.4526 -0.197663 23.5499 0.0659802L15.4583 2.42062C15.01 2.55123 14.6394 2.84828 14.4153 3.25772C14.1905 3.66716 14.1395 4.13917 14.2701 4.58688L15.1333 7.55192C13.4737 8.56397 11.952 9.78494 10.5979 11.1913L7.88979 9.70476C7.63283 9.56383 7.34185 9.4885 7.04965 9.4885C6.41119 9.4885 5.82437 9.83598 5.51699 10.3949L1.46149 17.7818C1.23672 18.1912 1.18449 18.6632 1.31509 19.1109C1.44569 19.5586 1.74275 19.9298 2.15219 20.154L4.86155 21.6417C4.40109 23.5376 4.18726 25.4773 4.22491 27.4206L1.25988 28.2838C0.811562 28.4144 0.441002 28.7115 0.216844 29.1209C-0.00792073 29.5304 -0.0601573 30.0024 0.0704419 30.4501L2.42508 38.5423C2.68751 39.4419 3.68803 39.9941 4.59077 39.7311L7.5558 38.8679C8.56786 40.5275 9.78883 42.0492 11.1951 43.4027L9.70744 46.112C9.48267 46.5215 9.43043 46.9935 9.56103 47.4418C9.69164 47.8895 9.9887 48.2594 10.3981 48.4848L17.7851 52.5416C18.042 52.6825 18.333 52.7566 18.6246 52.7566C19.263 52.7566 19.8511 52.4091 20.1573 51.8503L21.645 49.1409C23.5391 49.6014 25.4854 49.8121 27.4251 49.7781L28.2883 52.7432C28.5046 53.4843 29.1935 54.0025 29.9649 54.0025C30.1302 54.0025 30.2948 53.9788 30.4546 53.932L38.5467 51.5774C39.4713 51.3083 40.0053 50.3375 39.7356 49.4117L38.8699 46.4443ZM38.2849 33.1927C36.0227 37.3126 31.695 39.8725 26.9907 39.8725C24.8403 39.8725 22.702 39.3222 20.8059 38.2816C17.7916 36.6268 15.6023 33.8969 14.6418 30.5952C13.6814 27.2936 14.0629 23.8163 15.7183 20.802C17.9805 16.6821 22.3088 14.1222 27.0137 14.1222C29.1642 14.1222 31.3025 14.6726 33.1985 15.7131C39.4185 19.1302 41.7002 26.9716 38.2849 33.1929L38.2849 33.1927Z" fill="#ED1E24"/>
<path d="M70.3273 55.7907C70.8248 55.6461 71.1109 55.1237 70.9664 54.6261L69.7004 50.2759C69.5601 49.7918 69.0218 49.4947 68.5358 49.6369L66.9412 50.101C66.3969 49.2086 65.7408 48.3897 64.9845 47.6625L65.7846 46.2064C66.0336 45.7526 65.8672 45.1804 65.4134 44.9307L61.4411 42.7499C61.3026 42.674 61.1465 42.6339 60.9892 42.6339C60.6459 42.6339 60.33 42.8204 60.1654 43.1205L59.366 44.5766C58.3478 44.3294 57.2993 44.2158 56.2588 44.2346L55.7947 42.64C55.6537 42.1558 55.1161 41.8588 54.6301 42.0009L50.28 43.2669C50.0388 43.3373 49.8401 43.4965 49.7192 43.717C49.5983 43.9375 49.571 44.1908 49.6409 44.4314L50.105 46.0261C49.2126 46.5703 48.3943 47.2264 47.6665 47.9827L46.2104 47.1833C46.0719 47.1074 45.9158 47.0673 45.7585 47.0673C45.4152 47.0673 45.0999 47.2538 44.9347 47.5551L42.7539 51.5261C42.633 51.7466 42.6051 52 42.6756 52.2411C42.746 52.4823 42.9052 52.6809 43.1251 52.8018L44.5812 53.6013C44.334 54.6212 44.2192 55.6637 44.2392 56.7084L42.6446 57.1726C42.4034 57.243 42.2048 57.4022 42.0839 57.6227C41.963 57.8432 41.935 58.0965 42.0055 58.3371L43.2715 62.6879C43.4124 63.1721 43.9506 63.4685 44.436 63.327L46.0307 62.8629C46.575 63.7546 47.231 64.5735 47.9873 65.3007L47.1879 66.7568C47.067 66.9774 47.0391 67.2307 47.1095 67.4718C47.1794 67.713 47.3392 67.9116 47.5591 68.0325L51.5301 70.2133C51.6686 70.2893 51.8247 70.3293 51.9815 70.3293C52.3247 70.3293 52.6406 70.1429 52.8052 69.8415L53.6046 68.3854C54.6228 68.6327 55.6694 68.7469 56.7118 68.7286L57.1759 70.3233C57.292 70.7224 57.6625 71 58.0774 71C58.1661 71 58.2548 70.9867 58.3405 70.9624L62.6913 69.6964C63.1888 69.5518 63.4749 69.0294 63.3304 68.5318L62.8662 66.9372C63.758 66.3935 64.5769 65.7368 65.3041 64.9805L66.7602 65.7806C66.8987 65.8565 67.0548 65.8966 67.2122 65.8966C67.5554 65.8966 67.8713 65.7101 68.0359 65.41L70.2167 61.4377C70.337 61.2172 70.3649 60.9639 70.295 60.7227C70.2246 60.4815 70.0654 60.2829 69.8449 60.162L68.3888 59.3625C68.6372 58.3426 68.7521 57.3001 68.732 56.2554L70.3273 55.7907ZM62.5522 59.8121C61.3354 62.0269 59.0094 63.4029 56.4798 63.4029C55.3244 63.4029 54.1739 63.1071 53.1551 62.5476C51.5343 61.6576 50.3577 60.19 49.8413 58.4156C49.3249 56.6406 49.5302 54.7706 50.4196 53.15C51.6364 50.9346 53.963 49.5586 56.4919 49.5586C57.6474 49.5586 58.7979 49.8544 59.8167 50.4145C63.1615 52.2515 64.3885 56.4675 62.5522 59.8122L62.5522 59.8121Z" fill="#ED1E24"/>
</svg>
