<svg width="85" height="74" viewBox="0 0 85 74" fill="none" xmlns="http://www.w3.org/2000/svg">
<path d="M27.6519 25.922V28.451C27.6519 31.9736 29.2237 35.3153 32.0899 37.4832L36.7131 41.1866C37.7302 41.9993 39.0247 42.4511 40.4113 42.4511H45.497C46.7914 42.4511 48.0859 42.09 49.1952 41.2767L53.8183 37.5733C56.6845 35.4054 58.3492 32.0637 58.3492 28.5411V26.0121L58.6265 25.7412C59.3663 24.9284 59.7359 23.8441 59.7359 22.6704C59.7359 21.7669 59.4586 20.7733 58.9039 19.9605C57.1469 21.3151 55.3901 22.6704 53.6331 24.1157L53.0785 23.9349C46.6983 21.225 39.394 21.225 32.9214 23.9349L32.2745 24.025C30.5176 22.5797 28.8536 21.2251 27.0968 19.8698C25.8023 21.7669 25.9874 24.2958 27.6514 25.9219L27.6519 25.922Z" fill="#ED1E24"/>
<path d="M18.4056 68.6443V65.9345H16.5565V60.5149H18.4056V56.3597L14.6144 57.7143C10.6388 59.1602 7.31015 60.5148 6.01566 63.6764L2.1322 73.1603H12.673L14.9846 68.6442L18.4056 68.6443Z" fill="#ED1E24"/>
<path d="M18.4056 64.1282H27.6519V62.322H25.8028V53.7409L20.2553 55.728V62.322H18.4056V64.1282Z" fill="#ED1E24"/>
<path d="M32.6449 21.9478C39.2101 19.3288 46.6067 19.3288 53.1718 21.9478C54.0967 21.2251 57.3324 18.6962 58.1644 18.0643V16.8899C48.2705 13.8191 37.5451 13.7283 27.6516 16.7998V17.8835L32.6449 21.9478Z" fill="#ED1E24"/>
<path d="M52.617 50.8509V40.735L50.3054 42.5413C49.011 43.6249 47.3463 44.1667 45.5899 44.1667H40.1348C38.4708 44.1667 36.8061 43.6249 35.4193 42.5413L33.1077 40.735V50.7607C39.2092 54.1025 46.6064 54.1025 52.6175 50.8508L52.617 50.8509Z" fill="#ED1E24"/>
<path d="M71.2021 57.7154L67.4109 56.3608V60.5159H69.2601V65.9356H67.4109V68.6454H70.7396L73.0512 73.1615H83.592L79.8009 63.6769C78.5064 60.5153 75.0854 59.1608 71.2021 57.7155V57.7154Z" fill="#ED1E24"/>
<path d="M58.1648 64.1282H67.4111V62.322H65.562V55.728L60.0139 53.7409V62.322H58.1648V64.1282Z" fill="#ED1E24"/>
<path d="M58.1648 14.993V10.3867C58.1648 4.69627 53.3565 6.3369e-08 47.5318 6.3369e-08H38.2855C32.4601 -0.000629934 27.6519 4.69627 27.6519 10.3867V14.993C37.6379 12.0124 48.2712 12.0124 58.1648 14.993Z" fill="#ED1E24"/>
<path d="M58.1648 60.5153V53.0186L54.5587 51.7541C47.4388 56.1801 38.3776 56.1801 31.2579 51.7541L27.6519 53.1093V60.5161H29.501V65.9357H27.6519V68.6455H58.1648V65.9357H56.3157V60.5161L58.1648 60.5153Z" fill="#ED1E24"/>
<path d="M65.5619 70.4508V65.9347H60.0137V70.4508H25.8023V65.9347H20.2548V70.4508H16.1863L14.799 73.1606H71.0167L69.63 70.4508H65.5619Z" fill="#ED1E24"/>
<path d="M5.55317 48.7735C6.20072 49.0444 6.93985 49.2252 7.58736 49.3153L10.916 57.1732C11.9332 56.7214 19.885 53.9216 19.885 53.9216L16.464 45.7021C18.9607 42.2697 18.7756 37.6634 15.9093 34.502L13.5977 41.186L8.23487 41.6377L4.81389 37.5734L7.86518 31.5218C2.87249 32.2445 -0.641449 36.6705 0.0984229 41.5476C0.467996 44.8893 2.50164 47.509 5.55293 48.7735L5.55317 48.7735Z" fill="#ED1E24"/>
<path d="M73.3287 56.5412L78.2293 44.89C82.6674 44.1673 85.6265 40.0129 84.8867 35.6769C84.6093 34.2316 83.9618 32.8771 83.0376 31.7934L81.4658 35.4968C80.9111 36.7613 79.5237 37.3031 78.2292 36.8514L76.1027 35.9479C74.8083 35.406 74.2536 34.0508 74.8083 32.7863L76.3801 29.0829C71.8492 29.3538 68.5204 33.1473 68.7977 37.4826C68.89 38.9279 69.4453 40.3732 70.2773 41.6377L65.1917 53.6505L73.3287 56.5412Z" fill="#ED1E24"/>
</svg>
