<svg width="86" height="63" viewBox="0 0 86 63" fill="none" xmlns="http://www.w3.org/2000/svg">
<path d="M76.7864 15.0007H73.7148C72.0187 15.0007 70.6432 16.3434 70.6432 18.0008V27.0002H61.4294V21C61.4294 17.686 58.6793 14.9998 55.2863 14.9998L43.0009 15.0005V9.0003H55.2863C56.9824 9.0003 58.3579 7.65757 58.3579 6.0002V3.0001C58.3579 1.34348 56.9831 0 55.2863 0L21.501 0.000697526C19.8049 0.000697526 18.4294 1.34343 18.4294 3.0008V6.0009C18.4294 7.65751 19.8042 9.001 21.501 9.001H33.7864V15.0012L21.501 15.0005C18.108 15.0005 15.3579 17.6867 15.3579 21.0007V33.0002H9.21472V24.0008C9.21472 22.3442 7.84 21.0007 6.14315 21.0007H3.07157C1.37549 21.0007 0 22.3434 0 24.0008V51.0001C0 52.6567 1.37472 54.0002 3.07157 54.0002H6.14315C7.83923 54.0002 9.21472 52.6575 9.21472 51.0001V42.0007H15.3579V49.7767C15.3579 51.5066 16.1227 53.1527 17.4554 54.2918L25.9066 61.5154C27.0278 62.4724 28.4632 62.9997 29.9508 62.9997C36.5923 63.0004 55.2861 62.9997 55.2861 62.9997C58.6791 62.9997 61.4292 60.3135 61.4292 56.9995V48.0001H70.6431V56.9995C70.6431 58.6561 72.0178 59.9996 73.7146 59.9996H76.7862C81.8752 59.9996 86 55.9708 86 51.0002V24.0009C86 19.0303 81.8752 15.0015 76.7862 15.0015L76.7864 15.0007ZM48.6283 40.6643L42.4852 49.6637C41.5439 51.0427 39.9299 50.9988 39.9299 50.9988V41.9994H33.7867C32.6541 41.9994 31.6128 41.3904 31.0781 40.4146C30.5446 39.4388 30.6032 38.2557 31.2309 37.3358L37.374 28.3363C38.3146 26.9552 39.9299 26.9999 39.9299 26.9999V35.9993H46.073C47.2057 35.9993 48.2469 36.6082 48.7817 37.5841C49.3152 38.5599 49.2566 39.7444 48.6282 40.6643L48.6283 40.6643Z" fill="#ED1E24"/>
</svg>
