<svg width="220" height="35" viewBox="0 0 220 35" fill="none" xmlns="http://www.w3.org/2000/svg">
<path d="M29.1667 16.0402H32.0833C32.0833 8.55892 26.4352 2.91663 18.9438 2.91663V5.83329C24.8675 5.83329 29.1667 10.1252 29.1667 16.0402Z" fill="#ED1E24"/>
<path d="M18.9583 11.6667C22.0252 11.6667 23.3333 12.9748 23.3333 16.0417H26.25C26.25 11.3386 23.6615 8.75002 18.9583 8.75002V11.6667ZM23.9488 19.6044C23.6685 19.3497 23.3003 19.2139 22.9218 19.2256C22.5433 19.2373 22.1842 19.3956 21.9202 19.6671L18.4304 23.2561C17.5904 23.0956 15.9017 22.5692 14.1633 20.8352C12.425 19.0954 11.8986 17.4023 11.7425 16.5681L15.3286 13.0769C15.6004 12.8131 15.759 12.4539 15.7707 12.0753C15.7824 11.6967 15.6463 11.3284 15.3913 11.0484L10.0027 5.12315C9.74758 4.84221 9.39296 4.6718 9.0142 4.64811C8.63543 4.62442 8.26234 4.74932 7.97418 4.99627L4.8096 7.71023C4.55747 7.96327 4.40698 8.30005 4.38668 8.65669C4.36481 9.02127 3.94772 17.6575 10.6444 24.3571C16.4865 30.1977 23.8044 30.625 25.8198 30.625C26.1144 30.625 26.2952 30.6163 26.3433 30.6134C26.6999 30.5934 27.0365 30.4422 27.2883 30.189L30.0008 27.0229C30.248 26.735 30.3731 26.362 30.3497 25.9832C30.3263 25.6045 30.1562 25.2497 29.8754 24.9944L23.9488 19.6044V19.6044Z" fill="#ED1E24"/>
<path d="M58.072 22C57.72 22 57.3893 21.9093 57.08 21.728C56.7707 21.536 56.504 21.2853 56.28 20.976C56.0667 20.656 55.9227 20.2987 55.848 19.904H64.984C65.0373 19.904 65.08 19.888 65.112 19.856C65.1547 19.8133 65.176 19.7653 65.176 19.712V17.584C65.176 17.5307 65.1547 17.488 65.112 17.456C65.08 17.4133 65.0373 17.392 64.984 17.392H58.072C57.656 17.392 57.2827 17.2907 56.952 17.088C56.6213 16.8853 56.3547 16.6187 56.152 16.288C55.9493 15.9467 55.848 15.5733 55.848 15.168V12.688C55.848 12.272 55.9493 11.8987 56.152 11.568C56.3547 11.2373 56.6213 10.976 56.952 10.784C57.2827 10.5813 57.656 10.48 58.072 10.48H65.064C65.4693 10.48 65.8373 10.5813 66.168 10.784C66.4987 10.976 66.7653 11.2373 66.968 11.568C67.1707 11.8987 67.272 12.272 67.272 12.688V19.792C67.272 20.1973 67.1707 20.5653 66.968 20.896C66.7653 21.2267 66.4987 21.4933 66.168 21.696C65.8373 21.8987 65.4693 22 65.064 22H58.072ZM58.152 15.28H65.176V12.768C65.176 12.7147 65.1547 12.672 65.112 12.64C65.08 12.5973 65.0373 12.576 64.984 12.576H58.152C58.0987 12.576 58.0507 12.5973 58.008 12.64C57.976 12.672 57.96 12.7147 57.96 12.768V15.088C57.96 15.1413 57.976 15.1893 58.008 15.232C58.0507 15.264 58.0987 15.28 58.152 15.28ZM76.586 22V12.752C76.586 12.6987 76.5647 12.656 76.522 12.624C76.49 12.5813 76.4473 12.56 76.394 12.56H69.098V10.464H76.474C76.8793 10.464 77.2473 10.5653 77.578 10.768C77.9193 10.96 78.186 11.2213 78.378 11.552C78.5807 11.8827 78.682 12.256 78.682 12.672V22H76.586ZM87.9485 22V12.752C87.9485 12.6987 87.9272 12.656 87.8845 12.624C87.8525 12.5813 87.8098 12.56 87.7565 12.56H80.4605V10.464H87.8365C88.2418 10.464 88.6098 10.5653 88.9405 10.768C89.2818 10.96 89.5485 11.2213 89.7405 11.552C89.9432 11.8827 90.0445 12.256 90.0445 12.672V22H87.9485ZM92.719 18.32V16.224H99.263V18.32H92.719ZM103.913 22C103.561 22 103.23 21.9093 102.921 21.728C102.611 21.536 102.345 21.2853 102.121 20.976C101.907 20.656 101.763 20.2987 101.689 19.904H110.825C110.878 19.904 110.921 19.888 110.953 19.856C110.995 19.8133 111.017 19.7653 111.017 19.712V17.584C111.017 17.5307 110.995 17.488 110.953 17.456C110.921 17.4133 110.878 17.392 110.825 17.392H103.913C103.497 17.392 103.123 17.2907 102.793 17.088C102.462 16.8853 102.195 16.6187 101.993 16.288C101.79 15.9467 101.689 15.5733 101.689 15.168V12.688C101.689 12.272 101.79 11.8987 101.993 11.568C102.195 11.2373 102.462 10.976 102.793 10.784C103.123 10.5813 103.497 10.48 103.913 10.48H110.905C111.31 10.48 111.678 10.5813 112.009 10.784C112.339 10.976 112.606 11.2373 112.809 11.568C113.011 11.8987 113.113 12.272 113.113 12.688V19.792C113.113 20.1973 113.011 20.5653 112.809 20.896C112.606 21.2267 112.339 21.4933 112.009 21.696C111.678 21.8987 111.31 22 110.905 22H103.913ZM103.993 15.28H111.017V12.768C111.017 12.7147 110.995 12.672 110.953 12.64C110.921 12.5973 110.878 12.576 110.825 12.576H103.993C103.939 12.576 103.891 12.5973 103.849 12.64C103.817 12.672 103.801 12.7147 103.801 12.768V15.088C103.801 15.1413 103.817 15.1893 103.849 15.232C103.891 15.264 103.939 15.28 103.993 15.28ZM118.011 22C117.605 22 117.237 21.8987 116.907 21.696C116.576 21.4933 116.309 21.2267 116.107 20.896C115.904 20.5653 115.803 20.1973 115.803 19.792V17.28C115.803 17.088 115.835 16.896 115.899 16.704C115.963 16.5013 116.043 16.3093 116.139 16.128C116.043 15.9467 115.963 15.76 115.899 15.568C115.835 15.3653 115.803 15.1627 115.803 14.96V12.688C115.803 12.272 115.904 11.8987 116.107 11.568C116.309 11.2373 116.576 10.976 116.907 10.784C117.237 10.5813 117.605 10.48 118.011 10.48H125.003C125.355 10.48 125.685 10.56 125.995 10.72C126.304 10.88 126.565 11.0987 126.779 11.376C127.003 11.6533 127.147 11.9573 127.211 12.288V14.96C127.211 15.3547 127.099 15.744 126.875 16.128C127.099 16.48 127.211 16.864 127.211 17.28V19.792C127.211 20.1973 127.109 20.5653 126.907 20.896C126.704 21.2267 126.437 21.4933 126.107 21.696C125.776 21.8987 125.408 22 125.003 22H118.011ZM118.091 19.904H124.923C124.976 19.904 125.019 19.888 125.051 19.856C125.093 19.8133 125.115 19.7653 125.115 19.712V17.376C125.115 17.3227 125.093 17.28 125.051 17.248C125.019 17.2053 124.976 17.184 124.923 17.184H118.091C118.037 17.184 117.989 17.2053 117.947 17.248C117.915 17.28 117.899 17.3227 117.899 17.376V19.712C117.899 19.7653 117.915 19.8133 117.947 19.856C117.989 19.888 118.037 19.904 118.091 19.904ZM118.091 15.248H124.923C124.976 15.248 125.019 15.2267 125.051 15.184C125.093 15.1413 125.115 15.0987 125.115 15.056V12.784C125.115 12.7307 125.093 12.688 125.051 12.656C125.019 12.6133 124.976 12.592 124.923 12.592H118.091C118.037 12.592 117.989 12.6133 117.947 12.656C117.915 12.688 117.899 12.7307 117.899 12.784V15.056C117.899 15.0987 117.915 15.1413 117.947 15.184C117.989 15.2267 118.037 15.248 118.091 15.248ZM132.154 22C131.749 22 131.381 21.8987 131.05 21.696C130.72 21.4933 130.453 21.2267 130.25 20.896C130.048 20.5653 129.946 20.1973 129.946 19.792V19.04H132.042V19.712C132.042 19.7653 132.058 19.8133 132.09 19.856C132.133 19.888 132.181 19.904 132.234 19.904H139.066C139.12 19.904 139.162 19.888 139.194 19.856C139.237 19.8133 139.258 19.7653 139.258 19.712V17.376C139.258 17.3227 139.237 17.28 139.194 17.248C139.162 17.2053 139.12 17.184 139.066 17.184H129.946V10.48H141.354V12.576H132.234C132.181 12.576 132.133 12.5973 132.09 12.64C132.058 12.672 132.042 12.7147 132.042 12.768V14.88C132.042 14.9333 132.058 14.9813 132.09 15.024C132.133 15.056 132.181 15.072 132.234 15.072H139.146C139.552 15.072 139.92 15.1733 140.25 15.376C140.592 15.568 140.858 15.8347 141.05 16.176C141.253 16.5067 141.354 16.8747 141.354 17.28V19.792C141.354 20.1973 141.253 20.5653 141.05 20.896C140.848 21.2267 140.581 21.4933 140.25 21.696C139.92 21.8987 139.552 22 139.146 22H132.154ZM146.812 22V13.504L145.9 14.624H143.132L146.604 10.48H148.924V22H146.812ZM153.286 22C152.88 22 152.512 21.8933 152.182 21.68C151.851 21.456 151.584 21.168 151.382 20.816C151.179 20.464 151.078 20.0907 151.078 19.696V12.736C151.078 12.32 151.179 11.9467 151.382 11.616C151.584 11.2747 151.851 11.0027 152.182 10.8C152.512 10.5867 152.88 10.48 153.286 10.48H160.278C160.683 10.48 161.051 10.5867 161.382 10.8C161.712 11.0027 161.979 11.2747 162.182 11.616C162.384 11.9467 162.486 12.32 162.486 12.736V19.696C162.486 20.0907 162.384 20.464 162.182 20.816C161.979 21.168 161.712 21.456 161.382 21.68C161.051 21.8933 160.683 22 160.278 22H153.286ZM154.134 19.792H160.198C160.251 19.792 160.294 19.776 160.326 19.744C160.368 19.7013 160.39 19.6533 160.39 19.6V14.576L154.134 19.792ZM153.174 17.84L159.43 12.624H153.366C153.312 12.624 153.264 12.6453 153.222 12.688C153.19 12.72 153.174 12.7627 153.174 12.816V17.84ZM167.429 22C167.024 22 166.656 21.8987 166.325 21.696C165.995 21.4933 165.728 21.2267 165.525 20.896C165.323 20.5653 165.221 20.1973 165.221 19.792V12.688C165.221 12.272 165.323 11.8987 165.525 11.568C165.728 11.2373 165.995 10.976 166.325 10.784C166.656 10.5813 167.024 10.48 167.429 10.48H174.805V12.576H167.509C167.456 12.576 167.408 12.5973 167.365 12.64C167.333 12.672 167.317 12.7147 167.317 12.768V14.864C167.317 14.9173 167.333 14.9653 167.365 15.008C167.408 15.04 167.456 15.056 167.509 15.056H174.421C174.827 15.056 175.195 15.1573 175.525 15.36C175.867 15.552 176.133 15.8187 176.325 16.16C176.528 16.4907 176.629 16.8587 176.629 17.264V19.792C176.629 20.1973 176.528 20.5653 176.325 20.896C176.123 21.2267 175.856 21.4933 175.525 21.696C175.195 21.8987 174.827 22 174.421 22H167.429ZM167.509 19.904H174.341C174.395 19.904 174.437 19.888 174.469 19.856C174.512 19.8133 174.533 19.7653 174.533 19.712V17.36C174.533 17.3067 174.512 17.264 174.469 17.232C174.437 17.1893 174.395 17.168 174.341 17.168H167.317V19.712C167.317 19.7653 167.333 19.8133 167.365 19.856C167.408 19.888 167.456 19.904 167.509 19.904ZM181.354 22C180.949 22 180.581 21.8987 180.25 21.696C179.92 21.4933 179.653 21.2267 179.45 20.896C179.248 20.5653 179.146 20.1973 179.146 19.792V19.04H181.242V19.712C181.242 19.7653 181.258 19.8133 181.29 19.856C181.333 19.888 181.381 19.904 181.434 19.904H188.266C188.32 19.904 188.362 19.888 188.394 19.856C188.437 19.8133 188.458 19.7653 188.458 19.712V17.376C188.458 17.3227 188.437 17.28 188.394 17.248C188.362 17.2053 188.32 17.184 188.266 17.184H179.146V10.48H190.554V12.576H181.434C181.381 12.576 181.333 12.5973 181.29 12.64C181.258 12.672 181.242 12.7147 181.242 12.768V14.88C181.242 14.9333 181.258 14.9813 181.29 15.024C181.333 15.056 181.381 15.072 181.434 15.072H188.346C188.752 15.072 189.12 15.1733 189.45 15.376C189.792 15.568 190.058 15.8347 190.25 16.176C190.453 16.5067 190.554 16.8747 190.554 17.28V19.792C190.554 20.1973 190.453 20.5653 190.25 20.896C190.048 21.2267 189.781 21.4933 189.45 21.696C189.12 21.8987 188.752 22 188.346 22H181.354ZM195.388 22C195.036 22 194.705 21.9093 194.396 21.728C194.086 21.536 193.82 21.2853 193.596 20.976C193.382 20.656 193.238 20.2987 193.164 19.904H202.3C202.353 19.904 202.396 19.888 202.428 19.856C202.47 19.8133 202.492 19.7653 202.492 19.712V17.584C202.492 17.5307 202.47 17.488 202.428 17.456C202.396 17.4133 202.353 17.392 202.3 17.392H195.388C194.972 17.392 194.598 17.2907 194.268 17.088C193.937 16.8853 193.67 16.6187 193.468 16.288C193.265 15.9467 193.164 15.5733 193.164 15.168V12.688C193.164 12.272 193.265 11.8987 193.468 11.568C193.67 11.2373 193.937 10.976 194.268 10.784C194.598 10.5813 194.972 10.48 195.388 10.48H202.38C202.785 10.48 203.153 10.5813 203.484 10.784C203.814 10.976 204.081 11.2373 204.284 11.568C204.486 11.8987 204.588 12.272 204.588 12.688V19.792C204.588 20.1973 204.486 20.5653 204.284 20.896C204.081 21.2267 203.814 21.4933 203.484 21.696C203.153 21.8987 202.785 22 202.38 22H195.388ZM195.468 15.28H202.492V12.768C202.492 12.7147 202.47 12.672 202.428 12.64C202.396 12.5973 202.353 12.576 202.3 12.576H195.468C195.414 12.576 195.366 12.5973 195.324 12.64C195.292 12.672 195.276 12.7147 195.276 12.768V15.088C195.276 15.1413 195.292 15.1893 195.324 15.232C195.366 15.264 195.414 15.28 195.468 15.28ZM209.486 22C209.08 22 208.712 21.8987 208.382 21.696C208.051 21.4933 207.784 21.2267 207.582 20.896C207.379 20.5653 207.278 20.1973 207.278 19.792V17.28C207.278 17.088 207.31 16.896 207.374 16.704C207.438 16.5013 207.518 16.3093 207.614 16.128C207.518 15.9467 207.438 15.76 207.374 15.568C207.31 15.3653 207.278 15.1627 207.278 14.96V12.688C207.278 12.272 207.379 11.8987 207.582 11.568C207.784 11.2373 208.051 10.976 208.382 10.784C208.712 10.5813 209.08 10.48 209.486 10.48H216.478C216.83 10.48 217.16 10.56 217.47 10.72C217.779 10.88 218.04 11.0987 218.254 11.376C218.478 11.6533 218.622 11.9573 218.686 12.288V14.96C218.686 15.3547 218.574 15.744 218.35 16.128C218.574 16.48 218.686 16.864 218.686 17.28V19.792C218.686 20.1973 218.584 20.5653 218.382 20.896C218.179 21.2267 217.912 21.4933 217.582 21.696C217.251 21.8987 216.883 22 216.478 22H209.486ZM209.566 19.904H216.398C216.451 19.904 216.494 19.888 216.526 19.856C216.568 19.8133 216.59 19.7653 216.59 19.712V17.376C216.59 17.3227 216.568 17.28 216.526 17.248C216.494 17.2053 216.451 17.184 216.398 17.184H209.566C209.512 17.184 209.464 17.2053 209.422 17.248C209.39 17.28 209.374 17.3227 209.374 17.376V19.712C209.374 19.7653 209.39 19.8133 209.422 19.856C209.464 19.888 209.512 19.904 209.566 19.904ZM209.566 15.248H216.398C216.451 15.248 216.494 15.2267 216.526 15.184C216.568 15.1413 216.59 15.0987 216.59 15.056V12.784C216.59 12.7307 216.568 12.688 216.526 12.656C216.494 12.6133 216.451 12.592 216.398 12.592H209.566C209.512 12.592 209.464 12.6133 209.422 12.656C209.39 12.688 209.374 12.7307 209.374 12.784V15.056C209.374 15.0987 209.39 15.1413 209.422 15.184C209.464 15.2267 209.512 15.248 209.566 15.248Z" fill="white"/>
</svg>
