<svg width="35" height="35" viewBox="0 0 35 35" fill="none" xmlns="http://www.w3.org/2000/svg">
<g clip-path="url(#clip0_138_126)">
<path d="M31.432 5.83336C31.2994 5.81971 31.1659 5.81971 31.0333 5.83336H3.81112C3.63664 5.83605 3.46333 5.86221 3.29584 5.91114L17.3444 19.9014L31.432 5.83336Z" fill="#ED1E24"/>
<path d="M32.8708 7.18469L18.7153 21.2819C18.351 21.6441 17.8582 21.8473 17.3445 21.8473C16.8308 21.8473 16.3379 21.6441 15.9736 21.2819L1.94446 7.29164C1.90133 7.45015 1.87846 7.61349 1.8764 7.77775V27.2222C1.8764 27.7379 2.08126 28.2325 2.44592 28.5971C2.81057 28.9618 3.30515 29.1666 3.82085 29.1666H31.0431C31.5588 29.1666 32.0533 28.9618 32.418 28.5971C32.7827 28.2325 32.9875 27.7379 32.9875 27.2222V7.77775C32.9798 7.57519 32.9404 7.37509 32.8708 7.18469V7.18469ZM5.15279 27.2222H3.8014V25.8319L10.8695 18.8222L12.2403 20.193L5.15279 27.2222ZM31.0236 27.2222H29.6625L22.575 20.193L23.9458 18.8222L31.0139 25.8319L31.0236 27.2222Z" fill="#ED1E24"/>
</g>
<defs>
<clipPath id="clip0_138_126">
<rect width="35" height="35" fill="white"/>
</clipPath>
</defs>
</svg>
