<svg width="29" height="29" viewBox="0 0 29 29" fill="none" xmlns="http://www.w3.org/2000/svg">
<path d="M14.5 9.6835C11.8478 9.6835 9.68348 11.8479 9.68348 14.5C9.68348 17.1521 11.8478 19.3165 14.5 19.3165C17.1521 19.3165 19.3165 17.1521 19.3165 14.5C19.3165 11.8479 17.1521 9.6835 14.5 9.6835ZM28.9459 14.5C28.9459 12.5055 28.964 10.529 28.8519 8.53809C28.7399 6.22559 28.2124 4.17324 26.5214 2.48223C24.8267 0.787598 22.778 0.263672 20.4655 0.151661C18.471 0.0396489 16.4945 0.0577154 14.5036 0.0577154C12.5091 0.0577154 10.5326 0.0396489 8.54169 0.151661C6.22919 0.263672 4.17684 0.791211 2.48583 2.48223C0.791199 4.17686 0.267273 6.22559 0.155262 8.53809C0.04325 10.5326 0.0613164 12.5091 0.0613164 14.5C0.0613164 16.4909 0.04325 18.471 0.155262 20.4619C0.267273 22.7744 0.794813 24.8268 2.48583 26.5178C4.18046 28.2124 6.22919 28.7363 8.54169 28.8483C10.5362 28.9604 12.5127 28.9423 14.5036 28.9423C16.4981 28.9423 18.4746 28.9604 20.4655 28.8483C22.778 28.7363 24.8304 28.2088 26.5214 26.5178C28.216 24.8231 28.7399 22.7744 28.8519 20.4619C28.9676 18.471 28.9459 16.4945 28.9459 14.5V14.5ZM14.5 21.9108C10.3989 21.9108 7.08915 18.6011 7.08915 14.5C7.08915 10.3989 10.3989 7.08916 14.5 7.08916C18.6011 7.08916 21.9108 10.3989 21.9108 14.5C21.9108 18.6011 18.6011 21.9108 14.5 21.9108ZM22.2143 8.51641C21.2568 8.51641 20.4836 7.74316 20.4836 6.78564C20.4836 5.82813 21.2568 5.05488 22.2143 5.05488C23.1719 5.05488 23.9451 5.82813 23.9451 6.78564C23.9454 7.01301 23.9008 7.2382 23.8139 7.44832C23.7271 7.65843 23.5996 7.84934 23.4388 8.01011C23.278 8.17089 23.0871 8.29836 22.877 8.38524C22.6669 8.47212 22.4417 8.51669 22.2143 8.51641V8.51641Z" fill="#ED1E24"/>
</svg>
