<svg width="28" height="34" viewBox="0 0 28 34" fill="none" xmlns="http://www.w3.org/2000/svg">
<path d="M14 0.375C10.5369 0.379086 7.21675 1.75662 4.76794 4.20543C2.31913 6.65424 0.941599 9.97436 0.937514 13.4375C0.933366 16.2676 1.8578 19.0209 3.56901 21.275C3.56901 21.275 3.92526 21.7441 3.98345 21.8118L14 33.625L24.0213 21.8058C24.0736 21.7429 24.431 21.275 24.431 21.275L24.4322 21.2714C26.1426 19.0183 27.0666 16.2663 27.0625 13.4375C27.0584 9.97436 25.6809 6.65424 23.2321 4.20543C20.7833 1.75662 17.4631 0.379086 14 0.375V0.375ZM14 18.1875C13.0606 18.1875 12.1422 17.9089 11.3611 17.387C10.5799 16.865 9.9711 16.1232 9.61159 15.2552C9.25207 14.3873 9.158 13.4322 9.34128 12.5108C9.52456 11.5894 9.97696 10.743 10.6413 10.0787C11.3056 9.41444 12.1519 8.96205 13.0733 8.77877C13.9947 8.59549 14.9498 8.68956 15.8178 9.04907C16.6857 9.40859 17.4276 10.0174 17.9495 10.7985C18.4714 11.5797 18.75 12.498 18.75 13.4375C18.7484 14.6968 18.2475 15.9041 17.357 16.7945C16.4666 17.685 15.2593 18.1859 14 18.1875V18.1875Z" fill="#ED1E24"/>
</svg>
