<svg width="31" height="25" viewBox="0 0 31 25" fill="none" xmlns="http://www.w3.org/2000/svg">
<path d="M31 2.96546C29.86 3.46658 28.6353 3.80518 27.3479 3.95822C28.6763 3.16969 29.6701 1.92863 30.144 0.466612C28.8959 1.20203 27.5299 1.71968 26.1055 1.99707C25.1476 0.98245 23.8788 0.309944 22.4961 0.0839617C21.1135 -0.142021 19.6943 0.0911637 18.4589 0.747312C17.2235 1.40346 16.241 2.44586 15.664 3.71268C15.087 4.97949 14.9478 6.39985 15.2679 7.75322C12.739 7.62725 10.265 6.97519 8.00657 5.83934C5.74812 4.70349 3.75566 3.10924 2.1585 1.16006C1.61239 2.09459 1.29838 3.1781 1.29838 4.33203C1.29777 5.37084 1.55564 6.39374 2.04912 7.30997C2.54259 8.2262 3.25641 9.00743 4.12723 9.58435C3.11731 9.55247 2.12966 9.28176 1.2465 8.79474V8.876C1.2464 10.333 1.75443 11.7451 2.68439 12.8728C3.61435 14.0005 4.90895 14.7743 6.34854 15.0628C5.41167 15.3144 4.42942 15.3514 3.476 15.1712C3.88216 16.4248 4.67334 17.5211 5.73876 18.3065C6.80419 19.0919 8.09052 19.5272 9.41769 19.5513C7.16475 21.3058 4.38239 22.2575 1.51819 22.2533C1.01083 22.2534 0.503892 22.224 0 22.1653C2.90733 24.0196 6.29167 25.0038 9.74808 25C21.4485 25 27.8448 15.3865 27.8448 7.04894C27.8448 6.77806 27.838 6.50447 27.8257 6.23359C29.0699 5.34102 30.1438 4.23573 30.9973 2.96952L31 2.96546Z" fill="#ED1E24"/>
</svg>
