<svg width="600" height="17" viewBox="0 0 600 17" fill="none" xmlns="http://www.w3.org/2000/svg">
<path d="M5.33802 10.9482H0.688284C0.305904 10.9482 0 10.6113 0 10.2071L0 6.65311C0 6.23203 0.305904 5.89516 0.688284 5.89516H5.36861C6.62282 5.89516 7.6476 7.00682 7.67819 8.37113C7.70878 9.78597 6.62282 10.9482 5.33802 10.9482ZM29.0609 8.42166C29.0609 9.81966 28.0361 10.9482 26.7666 10.9482L16.06 10.9482C14.7905 10.9482 13.7657 9.81966 13.7657 8.42166C13.7657 7.02366 14.7905 5.89516 16.06 5.89516H26.7666C28.0361 5.89516 29.0609 7.02366 29.0609 8.42166ZM42.1689 5.89516H37.5191C36.2343 5.89516 35.1484 7.05735 35.179 8.47219C35.2095 9.85334 36.219 10.9482 37.4732 10.9482H42.1689C42.5512 10.9482 42.8571 10.6113 42.8571 10.1902V6.63627C42.8418 6.23203 42.5512 5.89516 42.1689 5.89516ZM7.6476 16.8433C4.66503 16.8433 2.07709 14.9569 0.816763 12.2114H5.33802C5.94677 12.2114 6.53105 12.0346 7.03885 11.7229C7.23616 11.7667 7.43958 11.7903 7.6476 11.7903H13.7657C13.9722 11.7903 14.1741 11.7667 14.3683 11.7229C14.8685 12.0346 15.4451 12.2114 16.06 12.2114L20.5965 12.2114C19.9588 13.6041 18.9826 14.7745 17.7766 15.5923C16.5705 16.4101 15.182 16.8432 13.7657 16.8433H7.6476ZM5.36861 4.63191C5.98042 4.63191 6.55552 4.80876 7.05567 5.117C7.24686 5.07489 7.4457 5.05299 7.6476 5.05299L13.7657 5.05299C13.9722 5.05299 14.1741 5.07658 14.3683 5.12037C14.8685 4.80877 15.4451 4.63191 16.06 4.63191H20.5965C19.9588 3.23922 18.9826 2.0688 17.7766 1.25099C16.5705 0.433189 15.182 0.000112534 13.7657 -3.8147e-06H7.6476C4.66503 -3.8147e-06 2.07709 1.88645 0.816763 4.63191H5.36861ZM29.0609 -3.8147e-06C26.0783 -3.8147e-06 23.4904 1.88645 22.23 4.63191H26.7666C27.3815 4.63191 27.9596 4.80877 28.4582 5.12037C28.6525 5.07658 28.8559 5.05299 29.0609 5.05299H35.179C35.3946 5.05299 35.6072 5.07826 35.8091 5.12542C36.3215 4.81045 36.9073 4.63191 37.5191 4.63191H42.0098C41.3721 3.23922 40.3959 2.0688 39.1899 1.25099C37.9838 0.433189 36.5953 0.000112534 35.179 -3.8147e-06H29.0609ZM26.7666 12.2114C27.3815 12.2114 27.9596 12.0346 28.4582 11.7229C28.6525 11.7667 28.8559 11.7903 29.0609 11.7903L35.179 11.7903C35.3854 11.7903 35.5858 11.7667 35.7816 11.7229C36.2976 12.0442 36.8805 12.2125 37.4732 12.2114H42.0098C41.3721 13.6041 40.3959 14.7745 39.1899 15.5923C37.9838 16.4101 36.5953 16.8432 35.179 16.8433H29.0609C26.0783 16.8433 23.4904 14.9569 22.23 12.2114H26.7666Z" fill="url(#paint0_linear_112_525)"/>
<path d="M48.1952 10.9482H43.5455C43.1631 10.9482 42.8572 10.6113 42.8572 10.2071V6.65311C42.8572 6.23203 43.1631 5.89516 43.5455 5.89516H48.2258C49.48 5.89516 50.5048 7.00682 50.5354 8.37113C50.566 9.78597 49.48 10.9482 48.1952 10.9482ZM71.9181 8.42166C71.9181 9.81966 70.8933 10.9482 69.6238 10.9482L58.9171 10.9482C57.6476 10.9482 56.6229 9.81966 56.6229 8.42166C56.6229 7.02366 57.6476 5.89516 58.9171 5.89516H69.6238C70.8933 5.89516 71.9181 7.02366 71.9181 8.42166ZM85.026 5.89516L80.3763 5.89516C79.0915 5.89516 78.0055 7.05735 78.0361 8.47219C78.0667 9.85334 79.0762 10.9482 80.3304 10.9482H85.026C85.4084 10.9482 85.7143 10.6113 85.7143 10.1902V6.63627C85.699 6.23203 85.4084 5.89516 85.026 5.89516ZM50.5048 16.8433C47.5222 16.8433 44.9343 14.9569 43.6739 12.2114H48.1952C48.8039 12.2114 49.3882 12.0346 49.896 11.7229C50.0933 11.7667 50.2968 11.7903 50.5048 11.7903H56.6229C56.8293 11.7903 57.0312 11.7667 57.2255 11.7229C57.7256 12.0346 58.3023 12.2114 58.9171 12.2114L63.4537 12.2114C62.816 13.6041 61.8398 14.7745 60.6338 15.5923C59.4277 16.4101 58.0392 16.8432 56.6229 16.8433H50.5048ZM48.2258 4.63191C48.8376 4.63191 49.4127 4.80876 49.9129 5.117C50.104 5.07489 50.3029 5.05299 50.5048 5.05299L56.6229 5.05299C56.8293 5.05299 57.0312 5.07658 57.2255 5.12037C57.7256 4.80877 58.3023 4.63191 58.9171 4.63191H63.4537C62.816 3.23922 61.8398 2.0688 60.6338 1.25099C59.4277 0.433189 58.0392 0.000112534 56.6229 -3.8147e-06H50.5048C47.5222 -3.8147e-06 44.9343 1.88645 43.6739 4.63191H48.2258ZM71.9181 -3.8147e-06C68.9355 -3.8147e-06 66.3475 1.88645 65.0872 4.63191H69.6238C70.2386 4.63191 70.8168 4.80877 71.3154 5.12037C71.5097 5.07658 71.7131 5.05299 71.9181 5.05299H78.0361C78.2518 5.05299 78.4644 5.07826 78.6663 5.12542C79.1787 4.81045 79.7645 4.63191 80.3763 4.63191L84.867 4.63191C84.2293 3.23922 83.2531 2.0688 82.047 1.25099C80.841 0.433189 79.4525 0.000112534 78.0361 -3.8147e-06H71.9181ZM69.6238 12.2114C70.2386 12.2114 70.8168 12.0346 71.3154 11.7229C71.5097 11.7667 71.7131 11.7903 71.9181 11.7903L78.0361 11.7903C78.2426 11.7903 78.443 11.7667 78.6388 11.7229C79.1548 12.0442 79.7376 12.2125 80.3304 12.2114H84.867C84.2293 13.6041 83.2531 14.7745 82.047 15.5923C80.841 16.4101 79.4525 16.8432 78.0361 16.8433H71.9181C68.9355 16.8433 66.3475 14.9569 65.0872 12.2114H69.6238Z" fill="url(#paint1_linear_112_525)"/>
<path d="M91.0524 10.9482H86.4026C86.0203 10.9482 85.7144 10.6113 85.7144 10.2071V6.65311C85.7144 6.23203 86.0203 5.89516 86.4026 5.89516H91.083C92.3372 5.89516 93.362 7.00682 93.3925 8.37113C93.4231 9.78597 92.3372 10.9482 91.0524 10.9482ZM114.775 8.42166C114.775 9.81966 113.75 10.9482 112.481 10.9482L101.774 10.9482C100.505 10.9482 99.48 9.81966 99.48 8.42166C99.48 7.02366 100.505 5.89516 101.774 5.89516H112.481C113.75 5.89516 114.775 7.02366 114.775 8.42166ZM127.883 5.89516L123.233 5.89516C121.949 5.89516 120.863 7.05735 120.893 8.47219C120.924 9.85334 121.933 10.9482 123.188 10.9482H127.883C128.266 10.9482 128.571 10.6113 128.571 10.1902V6.63627C128.556 6.23203 128.266 5.89516 127.883 5.89516ZM93.362 16.8433C90.3794 16.8433 87.7914 14.9569 86.5311 12.2114H91.0524C91.6611 12.2114 92.2454 12.0346 92.7532 11.7229C92.9505 11.7667 93.1539 11.7903 93.362 11.7903H99.48C99.6865 11.7903 99.8884 11.7667 100.083 11.7229C100.583 12.0346 101.159 12.2114 101.774 12.2114L106.311 12.2114C105.673 13.6041 104.697 14.7745 103.491 15.5923C102.285 16.4101 100.896 16.8432 99.48 16.8433H93.362ZM91.083 4.63191C91.6948 4.63191 92.2699 4.80876 92.77 5.117C92.9612 5.07489 93.1601 5.05299 93.362 5.05299L99.48 5.05299C99.6865 5.05299 99.8884 5.07658 100.083 5.12037C100.583 4.80877 101.159 4.63191 101.774 4.63191H106.311C105.673 3.23922 104.697 2.0688 103.491 1.25099C102.285 0.433189 100.896 0.000112534 99.48 -3.8147e-06H93.362C90.3794 -3.8147e-06 87.7914 1.88645 86.5311 4.63191H91.083ZM114.775 -3.8147e-06C111.793 -3.8147e-06 109.205 1.88645 107.944 4.63191H112.481C113.096 4.63191 113.674 4.80877 114.173 5.12037C114.367 5.07658 114.57 5.05299 114.775 5.05299H120.893C121.109 5.05299 121.322 5.07826 121.523 5.12542C122.036 4.81045 122.622 4.63191 123.233 4.63191L127.724 4.63191C127.086 3.23922 126.11 2.0688 124.904 1.25099C123.698 0.433189 122.31 0.000112534 120.893 -3.8147e-06H114.775ZM112.481 12.2114C113.096 12.2114 113.674 12.0346 114.173 11.7229C114.367 11.7667 114.57 11.7903 114.775 11.7903L120.893 11.7903C121.1 11.7903 121.3 11.7667 121.496 11.7229C122.012 12.0442 122.595 12.2125 123.188 12.2114H127.724C127.086 13.6041 126.11 14.7745 124.904 15.5923C123.698 16.4101 122.31 16.8432 120.893 16.8433H114.775C111.793 16.8433 109.205 14.9569 107.944 12.2114H112.481Z" fill="url(#paint2_linear_112_525)"/>
<path d="M133.909 10.9482H129.26C128.877 10.9482 128.571 10.6113 128.571 10.2071V6.65311C128.571 6.23203 128.877 5.89516 129.26 5.89516H133.94C135.194 5.89516 136.219 7.00682 136.25 8.37113C136.28 9.78597 135.194 10.9482 133.909 10.9482ZM157.632 8.42166C157.632 9.81966 156.608 10.9482 155.338 10.9482L144.631 10.9482C143.362 10.9482 142.337 9.81966 142.337 8.42166C142.337 7.02366 143.362 5.89516 144.631 5.89516H155.338C156.608 5.89516 157.632 7.02366 157.632 8.42166ZM170.74 5.89516L166.091 5.89516C164.806 5.89516 163.72 7.05735 163.75 8.47219C163.781 9.85334 164.79 10.9482 166.045 10.9482H170.74C171.123 10.9482 171.429 10.6113 171.429 10.1902V6.63627C171.413 6.23203 171.123 5.89516 170.74 5.89516ZM136.219 16.8433C133.236 16.8433 130.648 14.9569 129.388 12.2114H133.909C134.518 12.2114 135.102 12.0346 135.61 11.7229C135.808 11.7667 136.011 11.7903 136.219 11.7903H142.337C142.544 11.7903 142.745 11.7667 142.94 11.7229C143.44 12.0346 144.017 12.2114 144.631 12.2114L149.168 12.2114C148.53 13.6041 147.554 14.7745 146.348 15.5923C145.142 16.4101 143.753 16.8432 142.337 16.8433H136.219ZM133.94 4.63191C134.552 4.63191 135.127 4.80876 135.627 5.117C135.818 5.07489 136.017 5.05299 136.219 5.05299L142.337 5.05299C142.544 5.05299 142.745 5.07658 142.94 5.12037C143.44 4.80877 144.017 4.63191 144.631 4.63191H149.168C148.53 3.23922 147.554 2.0688 146.348 1.25099C145.142 0.433189 143.753 0.000112534 142.337 -3.8147e-06H136.219C133.236 -3.8147e-06 130.648 1.88645 129.388 4.63191H133.94ZM157.632 -3.8147e-06C154.65 -3.8147e-06 152.062 1.88645 150.801 4.63191H155.338C155.953 4.63191 156.531 4.80877 157.03 5.12037C157.224 5.07658 157.427 5.05299 157.632 5.05299H163.75C163.966 5.05299 164.179 5.07826 164.381 5.12542C164.893 4.81045 165.479 4.63191 166.091 4.63191L170.581 4.63191C169.944 3.23922 168.967 2.0688 167.761 1.25099C166.555 0.433189 165.167 0.000112534 163.75 -3.8147e-06H157.632ZM155.338 12.2114C155.953 12.2114 156.531 12.0346 157.03 11.7229C157.224 11.7667 157.427 11.7903 157.632 11.7903L163.75 11.7903C163.957 11.7903 164.157 11.7667 164.353 11.7229C164.869 12.0442 165.452 12.2125 166.045 12.2114H170.581C169.944 13.6041 168.967 14.7745 167.761 15.5923C166.555 16.4101 165.167 16.8432 163.75 16.8433H157.632C154.65 16.8433 152.062 14.9569 150.801 12.2114H155.338Z" fill="url(#paint3_linear_112_525)"/>
<path d="M176.767 10.9482H172.117C171.734 10.9482 171.429 10.6113 171.429 10.2071V6.65311C171.429 6.23203 171.734 5.89516 172.117 5.89516H176.797C178.051 5.89516 179.076 7.00682 179.107 8.37113C179.137 9.78597 178.051 10.9482 176.767 10.9482ZM200.489 8.42166C200.489 9.81966 199.465 10.9482 198.195 10.9482L187.489 10.9482C186.219 10.9482 185.194 9.81966 185.194 8.42166C185.194 7.02366 186.219 5.89516 187.489 5.89516H198.195C199.465 5.89516 200.489 7.02366 200.489 8.42166ZM213.597 5.89516L208.948 5.89516C207.663 5.89516 206.577 7.05735 206.608 8.47219C206.638 9.85334 207.648 10.9482 208.902 10.9482H213.597C213.98 10.9482 214.286 10.6113 214.286 10.1902V6.63627C214.27 6.23203 213.98 5.89516 213.597 5.89516ZM179.076 16.8433C176.094 16.8433 173.506 14.9569 172.245 12.2114H176.767C177.375 12.2114 177.96 12.0346 178.467 11.7229C178.665 11.7667 178.868 11.7903 179.076 11.7903H185.194C185.401 11.7903 185.603 11.7667 185.797 11.7229C186.297 12.0346 186.874 12.2114 187.489 12.2114L192.025 12.2114C191.387 13.6041 190.411 14.7745 189.205 15.5923C187.999 16.4101 186.611 16.8432 185.194 16.8433H179.076ZM176.797 4.63191C177.409 4.63191 177.984 4.80876 178.484 5.117C178.675 5.07489 178.874 5.05299 179.076 5.05299L185.194 5.05299C185.401 5.05299 185.603 5.07658 185.797 5.12037C186.297 4.80877 186.874 4.63191 187.489 4.63191H192.025C191.387 3.23922 190.411 2.0688 189.205 1.25099C187.999 0.433189 186.611 0.000112534 185.194 -3.8147e-06H179.076C176.094 -3.8147e-06 173.506 1.88645 172.245 4.63191H176.797ZM200.489 -3.8147e-06C197.507 -3.8147e-06 194.919 1.88645 193.659 4.63191H198.195C198.81 4.63191 199.388 4.80877 199.887 5.12037C200.081 5.07658 200.285 5.05299 200.489 5.05299H206.608C206.823 5.05299 207.036 5.07826 207.238 5.12542C207.75 4.81045 208.336 4.63191 208.948 4.63191L213.438 4.63191C212.801 3.23922 211.824 2.0688 210.618 1.25099C209.412 0.433189 208.024 0.000112534 206.608 -3.8147e-06H200.489ZM198.195 12.2114C198.81 12.2114 199.388 12.0346 199.887 11.7229C200.081 11.7667 200.285 11.7903 200.489 11.7903L206.608 11.7903C206.814 11.7903 207.014 11.7667 207.21 11.7229C207.726 12.0442 208.309 12.2125 208.902 12.2114H213.438C212.801 13.6041 211.824 14.7745 210.618 15.5923C209.412 16.4101 208.024 16.8432 206.608 16.8433H200.489C197.507 16.8433 194.919 14.9569 193.659 12.2114H198.195Z" fill="url(#paint4_linear_112_525)"/>
<path d="M219.624 10.9482H214.974C214.592 10.9482 214.286 10.6113 214.286 10.2071V6.65311C214.286 6.23203 214.592 5.89516 214.974 5.89516H219.654C220.908 5.89516 221.933 7.00682 221.964 8.37113C221.994 9.78597 220.908 10.9482 219.624 10.9482ZM243.347 8.42166C243.347 9.81966 242.322 10.9482 241.052 10.9482L230.346 10.9482C229.076 10.9482 228.051 9.81966 228.051 8.42166C228.051 7.02366 229.076 5.89516 230.346 5.89516H241.052C242.322 5.89516 243.347 7.02366 243.347 8.42166ZM256.454 5.89516L251.805 5.89516C250.52 5.89516 249.434 7.05735 249.465 8.47219C249.495 9.85334 250.505 10.9482 251.759 10.9482H256.454C256.837 10.9482 257.143 10.6113 257.143 10.1902V6.63627C257.127 6.23203 256.837 5.89516 256.454 5.89516ZM221.933 16.8433C218.951 16.8433 216.363 14.9569 215.102 12.2114H219.624C220.232 12.2114 220.817 12.0346 221.324 11.7229C221.522 11.7667 221.725 11.7903 221.933 11.7903H228.051C228.258 11.7903 228.46 11.7667 228.654 11.7229C229.154 12.0346 229.731 12.2114 230.346 12.2114L234.882 12.2114C234.244 13.6041 233.268 14.7745 232.062 15.5923C230.856 16.4101 229.468 16.8432 228.051 16.8433H221.933ZM219.654 4.63191C220.266 4.63191 220.841 4.80876 221.341 5.117C221.533 5.07489 221.731 5.05299 221.933 5.05299L228.051 5.05299C228.258 5.05299 228.46 5.07658 228.654 5.12037C229.154 4.80877 229.731 4.63191 230.346 4.63191H234.882C234.244 3.23922 233.268 2.0688 232.062 1.25099C230.856 0.433189 229.468 0.000112534 228.051 -3.8147e-06H221.933C218.951 -3.8147e-06 216.363 1.88645 215.102 4.63191H219.654ZM243.347 -3.8147e-06C240.364 -3.8147e-06 237.776 1.88645 236.516 4.63191H241.052C241.667 4.63191 242.245 4.80877 242.744 5.12037C242.938 5.07658 243.142 5.05299 243.347 5.05299H249.465C249.68 5.05299 249.893 5.07826 250.095 5.12542C250.607 4.81045 251.193 4.63191 251.805 4.63191L256.295 4.63191C255.658 3.23922 254.682 2.0688 253.476 1.25099C252.269 0.433189 250.881 0.000112534 249.465 -3.8147e-06H243.347ZM241.052 12.2114C241.667 12.2114 242.245 12.0346 242.744 11.7229C242.938 11.7667 243.142 11.7903 243.347 11.7903L249.465 11.7903C249.671 11.7903 249.871 11.7667 250.067 11.7229C250.583 12.0442 251.166 12.2125 251.759 12.2114H256.295C255.658 13.6041 254.682 14.7745 253.476 15.5923C252.269 16.4101 250.881 16.8432 249.465 16.8433H243.347C240.364 16.8433 237.776 14.9569 236.516 12.2114H241.052Z" fill="url(#paint5_linear_112_525)"/>
<path d="M262.481 10.9482H257.831C257.449 10.9482 257.143 10.6113 257.143 10.2071V6.65311C257.143 6.23203 257.449 5.89516 257.831 5.89516H262.511C263.766 5.89516 264.79 7.00682 264.821 8.37113C264.852 9.78597 263.766 10.9482 262.481 10.9482ZM286.204 8.42166C286.204 9.81966 285.179 10.9482 283.909 10.9482L273.203 10.9482C271.933 10.9482 270.908 9.81966 270.908 8.42166C270.908 7.02366 271.933 5.89516 273.203 5.89516H283.909C285.179 5.89516 286.204 7.02366 286.204 8.42166ZM299.312 5.89516L294.662 5.89516C293.377 5.89516 292.291 7.05735 292.322 8.47219C292.352 9.85334 293.362 10.9482 294.616 10.9482H299.312C299.694 10.9482 300 10.6113 300 10.1902V6.63627C299.985 6.23203 299.694 5.89516 299.312 5.89516ZM264.79 16.8433C261.808 16.8433 259.22 14.9569 257.96 12.2114H262.481C263.09 12.2114 263.674 12.0346 264.182 11.7229C264.379 11.7667 264.582 11.7903 264.79 11.7903H270.908C271.115 11.7903 271.317 11.7667 271.511 11.7229C272.011 12.0346 272.588 12.2114 273.203 12.2114L277.739 12.2114C277.102 13.6041 276.125 14.7745 274.919 15.5923C273.713 16.4101 272.325 16.8432 270.908 16.8433H264.79ZM262.511 4.63191C263.123 4.63191 263.698 4.80876 264.198 5.117C264.39 5.07489 264.589 5.05299 264.79 5.05299L270.908 5.05299C271.115 5.05299 271.317 5.07658 271.511 5.12037C272.011 4.80877 272.588 4.63191 273.203 4.63191H277.739C277.102 3.23922 276.125 2.0688 274.919 1.25099C273.713 0.433189 272.325 0.000112534 270.908 -3.8147e-06H264.79C261.808 -3.8147e-06 259.22 1.88645 257.96 4.63191H262.511ZM286.204 -3.8147e-06C283.221 -3.8147e-06 280.633 1.88645 279.373 4.63191H283.909C284.524 4.63191 285.102 4.80877 285.601 5.12037C285.795 5.07658 285.999 5.05299 286.204 5.05299H292.322C292.537 5.05299 292.75 5.07826 292.952 5.12542C293.464 4.81045 294.05 4.63191 294.662 4.63191L299.153 4.63191C298.515 3.23922 297.539 2.0688 296.333 1.25099C295.127 0.433189 293.738 0.000112534 292.322 -3.8147e-06H286.204ZM283.909 12.2114C284.524 12.2114 285.102 12.0346 285.601 11.7229C285.795 11.7667 285.999 11.7903 286.204 11.7903L292.322 11.7903C292.528 11.7903 292.729 11.7667 292.924 11.7229C293.44 12.0442 294.023 12.2125 294.616 12.2114H299.153C298.515 13.6041 297.539 14.7745 296.333 15.5923C295.127 16.4101 293.738 16.8432 292.322 16.8433H286.204C283.221 16.8433 280.633 14.9569 279.373 12.2114H283.909Z" fill="url(#paint6_linear_112_525)"/>
<path d="M305.338 10.9482H300.688C300.306 10.9482 300 10.6113 300 10.2071V6.65311C300 6.23203 300.306 5.89516 300.688 5.89516H305.369C306.623 5.89516 307.648 7.00682 307.678 8.37113C307.709 9.78597 306.623 10.9482 305.338 10.9482ZM329.061 8.42166C329.061 9.81966 328.036 10.9482 326.767 10.9482L316.06 10.9482C314.79 10.9482 313.766 9.81966 313.766 8.42166C313.766 7.02366 314.79 5.89516 316.06 5.89516H326.767C328.036 5.89516 329.061 7.02366 329.061 8.42166ZM342.169 5.89516H337.519C336.234 5.89516 335.148 7.05735 335.179 8.47219C335.21 9.85334 336.219 10.9482 337.473 10.9482H342.169C342.551 10.9482 342.857 10.6113 342.857 10.1902V6.63627C342.842 6.23203 342.551 5.89516 342.169 5.89516ZM307.648 16.8433C304.665 16.8433 302.077 14.9569 300.817 12.2114H305.338C305.947 12.2114 306.531 12.0346 307.039 11.7229C307.236 11.7667 307.44 11.7903 307.648 11.7903H313.766C313.972 11.7903 314.174 11.7667 314.368 11.7229C314.868 12.0346 315.445 12.2114 316.06 12.2114L320.597 12.2114C319.959 13.6041 318.983 14.7745 317.777 15.5923C316.571 16.4101 315.182 16.8432 313.766 16.8433H307.648ZM305.369 4.63191C305.98 4.63191 306.556 4.80876 307.056 5.117C307.247 5.07489 307.446 5.05299 307.648 5.05299L313.766 5.05299C313.972 5.05299 314.174 5.07658 314.368 5.12037C314.868 4.80877 315.445 4.63191 316.06 4.63191H320.597C319.959 3.23922 318.983 2.0688 317.777 1.25099C316.571 0.433189 315.182 0.000112534 313.766 -3.8147e-06H307.648C304.665 -3.8147e-06 302.077 1.88645 300.817 4.63191H305.369ZM329.061 -3.8147e-06C326.078 -3.8147e-06 323.49 1.88645 322.23 4.63191H326.767C327.381 4.63191 327.96 4.80877 328.458 5.12037C328.652 5.07658 328.856 5.05299 329.061 5.05299H335.179C335.395 5.05299 335.607 5.07826 335.809 5.12542C336.322 4.81045 336.907 4.63191 337.519 4.63191H342.01C341.372 3.23922 340.396 2.0688 339.19 1.25099C337.984 0.433189 336.595 0.000112534 335.179 -3.8147e-06H329.061ZM326.767 12.2114C327.381 12.2114 327.96 12.0346 328.458 11.7229C328.652 11.7667 328.856 11.7903 329.061 11.7903L335.179 11.7903C335.385 11.7903 335.586 11.7667 335.782 11.7229C336.298 12.0442 336.88 12.2125 337.473 12.2114H342.01C341.372 13.6041 340.396 14.7745 339.19 15.5923C337.984 16.4101 336.595 16.8432 335.179 16.8433H329.061C326.078 16.8433 323.49 14.9569 322.23 12.2114H326.767Z" fill="url(#paint7_linear_112_525)"/>
<path d="M348.195 10.9482H343.545C343.163 10.9482 342.857 10.6113 342.857 10.2071V6.65311C342.857 6.23203 343.163 5.89516 343.545 5.89516H348.226C349.48 5.89516 350.505 7.00682 350.535 8.37113C350.566 9.78597 349.48 10.9482 348.195 10.9482ZM371.918 8.42166C371.918 9.81966 370.893 10.9482 369.624 10.9482L358.917 10.9482C357.648 10.9482 356.623 9.81966 356.623 8.42166C356.623 7.02366 357.648 5.89516 358.917 5.89516H369.624C370.893 5.89516 371.918 7.02366 371.918 8.42166ZM385.026 5.89516L380.376 5.89516C379.091 5.89516 378.006 7.05735 378.036 8.47219C378.067 9.85334 379.076 10.9482 380.33 10.9482H385.026C385.408 10.9482 385.714 10.6113 385.714 10.1902V6.63627C385.699 6.23203 385.408 5.89516 385.026 5.89516ZM350.505 16.8433C347.522 16.8433 344.934 14.9569 343.674 12.2114H348.195C348.804 12.2114 349.388 12.0346 349.896 11.7229C350.093 11.7667 350.297 11.7903 350.505 11.7903H356.623C356.829 11.7903 357.031 11.7667 357.225 11.7229C357.726 12.0346 358.302 12.2114 358.917 12.2114L363.454 12.2114C362.816 13.6041 361.84 14.7745 360.634 15.5923C359.428 16.4101 358.039 16.8432 356.623 16.8433H350.505ZM348.226 4.63191C348.838 4.63191 349.413 4.80876 349.913 5.117C350.104 5.07489 350.303 5.05299 350.505 5.05299L356.623 5.05299C356.829 5.05299 357.031 5.07658 357.225 5.12037C357.726 4.80877 358.302 4.63191 358.917 4.63191H363.454C362.816 3.23922 361.84 2.0688 360.634 1.25099C359.428 0.433189 358.039 0.000112534 356.623 -3.8147e-06H350.505C347.522 -3.8147e-06 344.934 1.88645 343.674 4.63191H348.226ZM371.918 -3.8147e-06C368.935 -3.8147e-06 366.348 1.88645 365.087 4.63191H369.624C370.239 4.63191 370.817 4.80877 371.315 5.12037C371.51 5.07658 371.713 5.05299 371.918 5.05299H378.036C378.252 5.05299 378.464 5.07826 378.666 5.12542C379.179 4.81045 379.764 4.63191 380.376 4.63191L384.867 4.63191C384.229 3.23922 383.253 2.0688 382.047 1.25099C380.841 0.433189 379.452 0.000112534 378.036 -3.8147e-06H371.918ZM369.624 12.2114C370.239 12.2114 370.817 12.0346 371.315 11.7229C371.51 11.7667 371.713 11.7903 371.918 11.7903L378.036 11.7903C378.243 11.7903 378.443 11.7667 378.639 11.7229C379.155 12.0442 379.738 12.2125 380.33 12.2114H384.867C384.229 13.6041 383.253 14.7745 382.047 15.5923C380.841 16.4101 379.452 16.8432 378.036 16.8433H371.918C368.935 16.8433 366.348 14.9569 365.087 12.2114H369.624Z" fill="url(#paint8_linear_112_525)"/>
<path d="M391.052 10.9482H386.403C386.02 10.9482 385.714 10.6113 385.714 10.2071V6.65311C385.714 6.23203 386.02 5.89516 386.403 5.89516H391.083C392.337 5.89516 393.362 7.00682 393.393 8.37113C393.423 9.78597 392.337 10.9482 391.052 10.9482ZM414.775 8.42166C414.775 9.81966 413.75 10.9482 412.481 10.9482L401.774 10.9482C400.505 10.9482 399.48 9.81966 399.48 8.42166C399.48 7.02366 400.505 5.89516 401.774 5.89516H412.481C413.75 5.89516 414.775 7.02366 414.775 8.42166ZM427.883 5.89516L423.233 5.89516C421.949 5.89516 420.863 7.05735 420.893 8.47219C420.924 9.85334 421.933 10.9482 423.188 10.9482H427.883C428.266 10.9482 428.571 10.6113 428.571 10.1902V6.63627C428.556 6.23203 428.266 5.89516 427.883 5.89516ZM393.362 16.8433C390.379 16.8433 387.791 14.9569 386.531 12.2114H391.052C391.661 12.2114 392.245 12.0346 392.753 11.7229C392.951 11.7667 393.154 11.7903 393.362 11.7903H399.48C399.687 11.7903 399.888 11.7667 400.083 11.7229C400.583 12.0346 401.159 12.2114 401.774 12.2114L406.311 12.2114C405.673 13.6041 404.697 14.7745 403.491 15.5923C402.285 16.4101 400.896 16.8432 399.48 16.8433H393.362ZM391.083 4.63191C391.695 4.63191 392.27 4.80876 392.77 5.117C392.961 5.07489 393.16 5.05299 393.362 5.05299L399.48 5.05299C399.687 5.05299 399.888 5.07658 400.083 5.12037C400.583 4.80877 401.159 4.63191 401.774 4.63191H406.311C405.673 3.23922 404.697 2.0688 403.491 1.25099C402.285 0.433189 400.896 0.000112534 399.48 -3.8147e-06H393.362C390.379 -3.8147e-06 387.791 1.88645 386.531 4.63191H391.083ZM414.775 -3.8147e-06C411.793 -3.8147e-06 409.205 1.88645 407.944 4.63191H412.481C413.096 4.63191 413.674 4.80877 414.173 5.12037C414.367 5.07658 414.57 5.05299 414.775 5.05299H420.893C421.109 5.05299 421.322 5.07826 421.523 5.12542C422.036 4.81045 422.622 4.63191 423.233 4.63191L427.724 4.63191C427.086 3.23922 426.11 2.0688 424.904 1.25099C423.698 0.433189 422.31 0.000112534 420.893 -3.8147e-06H414.775ZM412.481 12.2114C413.096 12.2114 413.674 12.0346 414.173 11.7229C414.367 11.7667 414.57 11.7903 414.775 11.7903L420.893 11.7903C421.1 11.7903 421.3 11.7667 421.496 11.7229C422.012 12.0442 422.595 12.2125 423.188 12.2114H427.724C427.086 13.6041 426.11 14.7745 424.904 15.5923C423.698 16.4101 422.31 16.8432 420.893 16.8433H414.775C411.793 16.8433 409.205 14.9569 407.944 12.2114H412.481Z" fill="url(#paint9_linear_112_525)"/>
<path d="M433.909 10.9482H429.26C428.877 10.9482 428.571 10.6113 428.571 10.2071V6.65311C428.571 6.23203 428.877 5.89516 429.26 5.89516H433.94C435.194 5.89516 436.219 7.00682 436.25 8.37113C436.28 9.78597 435.194 10.9482 433.909 10.9482ZM457.632 8.42166C457.632 9.81966 456.608 10.9482 455.338 10.9482L444.631 10.9482C443.362 10.9482 442.337 9.81966 442.337 8.42166C442.337 7.02366 443.362 5.89516 444.631 5.89516H455.338C456.608 5.89516 457.632 7.02366 457.632 8.42166ZM470.74 5.89516L466.091 5.89516C464.806 5.89516 463.72 7.05735 463.75 8.47219C463.781 9.85334 464.79 10.9482 466.045 10.9482H470.74C471.123 10.9482 471.429 10.6113 471.429 10.1902V6.63627C471.413 6.23203 471.123 5.89516 470.74 5.89516ZM436.219 16.8433C433.236 16.8433 430.648 14.9569 429.388 12.2114H433.909C434.518 12.2114 435.102 12.0346 435.61 11.7229C435.808 11.7667 436.011 11.7903 436.219 11.7903H442.337C442.544 11.7903 442.745 11.7667 442.94 11.7229C443.44 12.0346 444.017 12.2114 444.631 12.2114L449.168 12.2114C448.53 13.6041 447.554 14.7745 446.348 15.5923C445.142 16.4101 443.753 16.8432 442.337 16.8433H436.219ZM433.94 4.63191C434.552 4.63191 435.127 4.80876 435.627 5.117C435.818 5.07489 436.017 5.05299 436.219 5.05299L442.337 5.05299C442.544 5.05299 442.745 5.07658 442.94 5.12037C443.44 4.80877 444.017 4.63191 444.631 4.63191H449.168C448.53 3.23922 447.554 2.0688 446.348 1.25099C445.142 0.433189 443.753 0.000112534 442.337 -3.8147e-06H436.219C433.236 -3.8147e-06 430.648 1.88645 429.388 4.63191H433.94ZM457.632 -3.8147e-06C454.65 -3.8147e-06 452.062 1.88645 450.801 4.63191H455.338C455.953 4.63191 456.531 4.80877 457.03 5.12037C457.224 5.07658 457.427 5.05299 457.632 5.05299H463.75C463.966 5.05299 464.179 5.07826 464.381 5.12542C464.893 4.81045 465.479 4.63191 466.091 4.63191L470.581 4.63191C469.944 3.23922 468.967 2.0688 467.761 1.25099C466.555 0.433189 465.167 0.000112534 463.75 -3.8147e-06H457.632ZM455.338 12.2114C455.953 12.2114 456.531 12.0346 457.03 11.7229C457.224 11.7667 457.427 11.7903 457.632 11.7903L463.75 11.7903C463.957 11.7903 464.157 11.7667 464.353 11.7229C464.869 12.0442 465.452 12.2125 466.045 12.2114H470.581C469.944 13.6041 468.967 14.7745 467.761 15.5923C466.555 16.4101 465.167 16.8432 463.75 16.8433H457.632C454.65 16.8433 452.062 14.9569 450.801 12.2114H455.338Z" fill="url(#paint10_linear_112_525)"/>
<path d="M476.767 10.9482H472.117C471.734 10.9482 471.429 10.6113 471.429 10.2071V6.65311C471.429 6.23203 471.734 5.89516 472.117 5.89516H476.797C478.051 5.89516 479.076 7.00682 479.107 8.37113C479.137 9.78597 478.051 10.9482 476.767 10.9482ZM500.489 8.42166C500.489 9.81966 499.465 10.9482 498.195 10.9482L487.489 10.9482C486.219 10.9482 485.194 9.81966 485.194 8.42166C485.194 7.02366 486.219 5.89516 487.489 5.89516H498.195C499.465 5.89516 500.489 7.02366 500.489 8.42166ZM513.597 5.89516L508.948 5.89516C507.663 5.89516 506.577 7.05735 506.608 8.47219C506.638 9.85334 507.648 10.9482 508.902 10.9482H513.597C513.98 10.9482 514.286 10.6113 514.286 10.1902V6.63627C514.27 6.23203 513.98 5.89516 513.597 5.89516ZM479.076 16.8433C476.094 16.8433 473.506 14.9569 472.245 12.2114H476.767C477.375 12.2114 477.96 12.0346 478.467 11.7229C478.665 11.7667 478.868 11.7903 479.076 11.7903H485.194C485.401 11.7903 485.603 11.7667 485.797 11.7229C486.297 12.0346 486.874 12.2114 487.489 12.2114L492.025 12.2114C491.387 13.6041 490.411 14.7745 489.205 15.5923C487.999 16.4101 486.611 16.8432 485.194 16.8433H479.076ZM476.797 4.63191C477.409 4.63191 477.984 4.80876 478.484 5.117C478.675 5.07489 478.874 5.05299 479.076 5.05299L485.194 5.05299C485.401 5.05299 485.603 5.07658 485.797 5.12037C486.297 4.80877 486.874 4.63191 487.489 4.63191H492.025C491.387 3.23922 490.411 2.0688 489.205 1.25099C487.999 0.433189 486.611 0.000112534 485.194 -3.8147e-06H479.076C476.094 -3.8147e-06 473.506 1.88645 472.245 4.63191H476.797ZM500.489 -3.8147e-06C497.507 -3.8147e-06 494.919 1.88645 493.659 4.63191H498.195C498.81 4.63191 499.388 4.80877 499.887 5.12037C500.081 5.07658 500.285 5.05299 500.489 5.05299H506.608C506.823 5.05299 507.036 5.07826 507.238 5.12542C507.75 4.81045 508.336 4.63191 508.948 4.63191L513.438 4.63191C512.801 3.23922 511.824 2.0688 510.618 1.25099C509.412 0.433189 508.024 0.000112534 506.608 -3.8147e-06H500.489ZM498.195 12.2114C498.81 12.2114 499.388 12.0346 499.887 11.7229C500.081 11.7667 500.285 11.7903 500.489 11.7903L506.608 11.7903C506.814 11.7903 507.014 11.7667 507.21 11.7229C507.726 12.0442 508.309 12.2125 508.902 12.2114H513.438C512.801 13.6041 511.824 14.7745 510.618 15.5923C509.412 16.4101 508.024 16.8432 506.608 16.8433H500.489C497.507 16.8433 494.919 14.9569 493.659 12.2114H498.195Z" fill="url(#paint11_linear_112_525)"/>
<path d="M519.624 10.9482H514.974C514.592 10.9482 514.286 10.6113 514.286 10.2071V6.65311C514.286 6.23203 514.592 5.89516 514.974 5.89516H519.654C520.908 5.89516 521.933 7.00682 521.964 8.37113C521.994 9.78597 520.908 10.9482 519.624 10.9482ZM543.347 8.42166C543.347 9.81966 542.322 10.9482 541.052 10.9482L530.346 10.9482C529.076 10.9482 528.051 9.81966 528.051 8.42166C528.051 7.02366 529.076 5.89516 530.346 5.89516H541.052C542.322 5.89516 543.347 7.02366 543.347 8.42166ZM556.454 5.89516L551.805 5.89516C550.52 5.89516 549.434 7.05735 549.465 8.47219C549.495 9.85334 550.505 10.9482 551.759 10.9482H556.454C556.837 10.9482 557.143 10.6113 557.143 10.1902V6.63627C557.127 6.23203 556.837 5.89516 556.454 5.89516ZM521.933 16.8433C518.951 16.8433 516.363 14.9569 515.102 12.2114H519.624C520.232 12.2114 520.817 12.0346 521.324 11.7229C521.522 11.7667 521.725 11.7903 521.933 11.7903H528.051C528.258 11.7903 528.46 11.7667 528.654 11.7229C529.154 12.0346 529.731 12.2114 530.346 12.2114L534.882 12.2114C534.244 13.6041 533.268 14.7745 532.062 15.5923C530.856 16.4101 529.468 16.8432 528.051 16.8433H521.933ZM519.654 4.63191C520.266 4.63191 520.841 4.80876 521.341 5.117C521.533 5.07489 521.731 5.05299 521.933 5.05299L528.051 5.05299C528.258 5.05299 528.46 5.07658 528.654 5.12037C529.154 4.80877 529.731 4.63191 530.346 4.63191H534.882C534.244 3.23922 533.268 2.0688 532.062 1.25099C530.856 0.433189 529.468 0.000112534 528.051 -3.8147e-06H521.933C518.951 -3.8147e-06 516.363 1.88645 515.102 4.63191H519.654ZM543.347 -3.8147e-06C540.364 -3.8147e-06 537.776 1.88645 536.516 4.63191H541.052C541.667 4.63191 542.245 4.80877 542.744 5.12037C542.938 5.07658 543.142 5.05299 543.347 5.05299H549.465C549.68 5.05299 549.893 5.07826 550.095 5.12542C550.607 4.81045 551.193 4.63191 551.805 4.63191L556.295 4.63191C555.658 3.23922 554.682 2.0688 553.476 1.25099C552.269 0.433189 550.881 0.000112534 549.465 -3.8147e-06H543.347ZM541.052 12.2114C541.667 12.2114 542.245 12.0346 542.744 11.7229C542.938 11.7667 543.142 11.7903 543.347 11.7903L549.465 11.7903C549.671 11.7903 549.871 11.7667 550.067 11.7229C550.583 12.0442 551.166 12.2125 551.759 12.2114H556.295C555.658 13.6041 554.682 14.7745 553.476 15.5923C552.269 16.4101 550.881 16.8432 549.465 16.8433H543.347C540.364 16.8433 537.776 14.9569 536.516 12.2114H541.052Z" fill="url(#paint12_linear_112_525)"/>
<path d="M562.481 10.9482H557.831C557.449 10.9482 557.143 10.6113 557.143 10.2071V6.65311C557.143 6.23203 557.449 5.89516 557.831 5.89516H562.511C563.766 5.89516 564.79 7.00682 564.821 8.37113C564.852 9.78597 563.766 10.9482 562.481 10.9482ZM586.204 8.42166C586.204 9.81966 585.179 10.9482 583.909 10.9482L573.203 10.9482C571.933 10.9482 570.908 9.81966 570.908 8.42166C570.908 7.02366 571.933 5.89516 573.203 5.89516H583.909C585.179 5.89516 586.204 7.02366 586.204 8.42166ZM599.312 5.89516L594.662 5.89516C593.377 5.89516 592.291 7.05735 592.322 8.47219C592.352 9.85334 593.362 10.9482 594.616 10.9482H599.312C599.694 10.9482 600 10.6113 600 10.1902V6.63627C599.985 6.23203 599.694 5.89516 599.312 5.89516ZM564.79 16.8433C561.808 16.8433 559.22 14.9569 557.96 12.2114H562.481C563.09 12.2114 563.674 12.0346 564.182 11.7229C564.379 11.7667 564.582 11.7903 564.79 11.7903H570.908C571.115 11.7903 571.317 11.7667 571.511 11.7229C572.011 12.0346 572.588 12.2114 573.203 12.2114L577.739 12.2114C577.102 13.6041 576.125 14.7745 574.919 15.5923C573.713 16.4101 572.325 16.8432 570.908 16.8433H564.79ZM562.511 4.63191C563.123 4.63191 563.698 4.80876 564.198 5.117C564.39 5.07489 564.589 5.05299 564.79 5.05299L570.908 5.05299C571.115 5.05299 571.317 5.07658 571.511 5.12037C572.011 4.80877 572.588 4.63191 573.203 4.63191H577.739C577.102 3.23922 576.125 2.0688 574.919 1.25099C573.713 0.433189 572.325 0.000112534 570.908 -3.8147e-06H564.79C561.808 -3.8147e-06 559.22 1.88645 557.96 4.63191H562.511ZM586.204 -3.8147e-06C583.221 -3.8147e-06 580.633 1.88645 579.373 4.63191H583.909C584.524 4.63191 585.102 4.80877 585.601 5.12037C585.795 5.07658 585.999 5.05299 586.204 5.05299H592.322C592.537 5.05299 592.75 5.07826 592.952 5.12542C593.464 4.81045 594.05 4.63191 594.662 4.63191L599.153 4.63191C598.515 3.23922 597.539 2.0688 596.333 1.25099C595.127 0.433189 593.738 0.000112534 592.322 -3.8147e-06H586.204ZM583.909 12.2114C584.524 12.2114 585.102 12.0346 585.601 11.7229C585.795 11.7667 585.999 11.7903 586.204 11.7903L592.322 11.7903C592.528 11.7903 592.729 11.7667 592.924 11.7229C593.44 12.0442 594.023 12.2125 594.616 12.2114H599.153C598.515 13.6041 597.539 14.7745 596.333 15.5923C595.127 16.4101 593.738 16.8432 592.322 16.8433H586.204C583.221 16.8433 580.633 14.9569 579.373 12.2114H583.909Z" fill="url(#paint13_linear_112_525)"/>
<defs>
<linearGradient id="paint0_linear_112_525" x1="0" y1="8.42166" x2="42.8571" y2="8.42166" gradientUnits="userSpaceOnUse">
<stop stop-color="white"/>
<stop offset="1" stop-color="#1E1E1E"/>
</linearGradient>
<linearGradient id="paint1_linear_112_525" x1="42.8572" y1="8.42166" x2="85.7143" y2="8.42166" gradientUnits="userSpaceOnUse">
<stop stop-color="white"/>
<stop offset="1" stop-color="#1E1E1E"/>
</linearGradient>
<linearGradient id="paint2_linear_112_525" x1="85.7144" y1="8.42166" x2="128.571" y2="8.42166" gradientUnits="userSpaceOnUse">
<stop stop-color="white"/>
<stop offset="1" stop-color="#1E1E1E"/>
</linearGradient>
<linearGradient id="paint3_linear_112_525" x1="128.571" y1="8.42166" x2="171.429" y2="8.42166" gradientUnits="userSpaceOnUse">
<stop stop-color="white"/>
<stop offset="1" stop-color="#1E1E1E"/>
</linearGradient>
<linearGradient id="paint4_linear_112_525" x1="171.429" y1="8.42166" x2="214.286" y2="8.42166" gradientUnits="userSpaceOnUse">
<stop stop-color="white"/>
<stop offset="1" stop-color="#1E1E1E"/>
</linearGradient>
<linearGradient id="paint5_linear_112_525" x1="214.286" y1="8.42166" x2="257.143" y2="8.42166" gradientUnits="userSpaceOnUse">
<stop stop-color="white"/>
<stop offset="1" stop-color="#1E1E1E"/>
</linearGradient>
<linearGradient id="paint6_linear_112_525" x1="257.143" y1="8.42166" x2="300" y2="8.42166" gradientUnits="userSpaceOnUse">
<stop stop-color="white"/>
<stop offset="1" stop-color="#1E1E1E"/>
</linearGradient>
<linearGradient id="paint7_linear_112_525" x1="300" y1="8.42166" x2="342.857" y2="8.42166" gradientUnits="userSpaceOnUse">
<stop stop-color="white"/>
<stop offset="1" stop-color="#1E1E1E"/>
</linearGradient>
<linearGradient id="paint8_linear_112_525" x1="342.857" y1="8.42166" x2="385.714" y2="8.42166" gradientUnits="userSpaceOnUse">
<stop stop-color="white"/>
<stop offset="1" stop-color="#1E1E1E"/>
</linearGradient>
<linearGradient id="paint9_linear_112_525" x1="385.714" y1="8.42166" x2="428.571" y2="8.42166" gradientUnits="userSpaceOnUse">
<stop stop-color="white"/>
<stop offset="1" stop-color="#1E1E1E"/>
</linearGradient>
<linearGradient id="paint10_linear_112_525" x1="428.571" y1="8.42166" x2="471.429" y2="8.42166" gradientUnits="userSpaceOnUse">
<stop stop-color="white"/>
<stop offset="1" stop-color="#1E1E1E"/>
</linearGradient>
<linearGradient id="paint11_linear_112_525" x1="471.429" y1="8.42166" x2="514.286" y2="8.42166" gradientUnits="userSpaceOnUse">
<stop stop-color="white"/>
<stop offset="1" stop-color="#1E1E1E"/>
</linearGradient>
<linearGradient id="paint12_linear_112_525" x1="514.286" y1="8.42166" x2="557.143" y2="8.42166" gradientUnits="userSpaceOnUse">
<stop stop-color="white"/>
<stop offset="1" stop-color="#1E1E1E"/>
</linearGradient>
<linearGradient id="paint13_linear_112_525" x1="557.143" y1="8.42166" x2="600" y2="8.42166" gradientUnits="userSpaceOnUse">
<stop stop-color="white"/>
<stop offset="1" stop-color="#1E1E1E"/>
</linearGradient>
</defs>
</svg>
